Coordinates
version=1
nRows=38
nColumns=38
inDegrees=no

Units are S.I. units (second, meters, Newtons, ...)
If the header above contains a line with 'inDegrees', this indicates whether rotational values are in degrees (yes) or radians (no).

endheader
time	pelvis_tilt	pelvis_list	pelvis_rotation	pelvis_tx	pelvis_ty	pelvis_tz	hip_flexion_r	hip_adduction_r	hip_rotation_r	knee_angle_r	ankle_angle_r	subtalar_angle_r	mtp_angle_r	hip_flexion_l	hip_adduction_l	hip_rotation_l	knee_angle_l	ankle_angle_l	subtalar_angle_l	mtp_angle_l	lumbar_extension	lumbar_bending	lumbar_rotation	arm_flex_r	arm_add_r	arm_rot_r	elbow_flex_r	pro_sup_r	wrist_flex_r	wrist_dev_r	arm_flex_l	arm_add_l	arm_rot_l	elbow_flex_l	pro_sup_l	wrist_flex_l	wrist_dev_l
20	1.03609	1.49005	0.257039	0.807792	-0.731745	0.965777	-0.12021	0.0914884	-0.208792	0.246981	0.227496	0	0	0.138309	-0.154456	-0.301413	0.0977219	-0.049152	0	0	-0.203898	0.138511	0.216685	0.84559	-0.109298	0.389679	1.04683	1.5708	0	0	0.916387	-0.157691	0.214373	0.859792	0.80671	0	0
20.01	1.02294	1.48931	0.270027	0.807058	-0.730352	0.96585	-0.120353	0.0905175	-0.208416	0.246273	0.226034	0	0	0.138919	-0.153717	-0.300589	0.0986628	-0.0478593	0	0	-0.203474	0.138046	0.214829	0.850436	-0.109044	0.392416	1.04172	1.5708	0	0	0.9187	-0.159247	0.219261	0.858288	0.807046	0	0
20.02	1.01445	1.48057	0.274257	0.805819	-0.729617	0.966569	-0.12074	0.0967412	-0.212974	0.237039	0.216587	0	0	0.142406	-0.16151	-0.301987	0.101657	-0.0469677	0	0	-0.204374	0.147719	0.218519	0.857679	-0.113778	0.40282	1.03781	1.5708	0	0	0.919948	-0.155681	0.212544	0.853541	0.808312	0	0
20.03	1.00097	1.48746	0.290068	0.805686	-0.727572	0.966043	-0.120678	0.0888888	-0.205516	0.245322	0.22281	0	0	0.13944	-0.153052	-0.301527	0.101364	-0.0443075	0	0	-0.202844	0.137212	0.213168	0.859067	-0.113153	0.40441	1.03415	1.5708	0	0	0.925264	-0.158636	0.2205	0.84851	0.80785	0	0
20.04	0.986583	1.48733	0.303299	0.804991	-0.726212	0.966135	-0.119925	0.0867249	-0.205716	0.246918	0.222517	0	0	0.139233	-0.151732	-0.302009	0.10173	-0.0433243	0	0	-0.202454	0.135658	0.212134	0.863172	-0.114778	0.409971	1.0294	1.5708	0	0	0.929667	-0.15986	0.226582	0.841988	0.807786	0	0
20.05	0.977252	1.48671	0.311723	0.804286	-0.724912	0.966251	-0.119677	0.0854412	-0.204985	0.247643	0.221385	0	0	0.139199	-0.151093	-0.303038	0.1027	-0.0413627	0	0	-0.202576	0.134784	0.211096	0.867492	-0.116631	0.416456	1.02543	1.5708	0	0	0.934501	-0.160806	0.231496	0.834867	0.807852	0	0
20.06	0.96926	1.48592	0.319044	0.803586	-0.723597	0.966376	-0.119571	0.0844072	-0.204399	0.248124	0.21991	0	0	0.139195	-0.150527	-0.303779	0.1035	-0.0390891	0	0	-0.202826	0.134103	0.210145	0.871461	-0.118831	0.423101	1.02233	1.5708	0	0	0.939541	-0.16193	0.237214	0.827886	0.80765	0	0
20.07	0.960094	1.48506	0.32773	0.802871	-0.722274	0.966506	-0.119334	0.0833628	-0.203911	0.248553	0.218506	0	0	0.139253	-0.149854	-0.304288	0.103832	-0.0376066	0	0	-0.203028	0.133523	0.209385	0.875012	-0.121319	0.429907	1.01979	1.5708	0	0	0.944778	-0.162829	0.243421	0.820598	0.807298	0	0
20.08	0.953805	1.48425	0.333751	0.802197	-0.720964	0.96667	-0.119604	0.0825054	-0.20312	0.248312	0.216726	0	0	0.139015	-0.149338	-0.304282	0.104343	-0.0362644	0	0	-0.203502	0.132962	0.208972	0.878146	-0.124112	0.43639	1.01776	1.5708	0	0	0.950002	-0.163777	0.250816	0.814075	0.806109	0	0
20.09	0.944906	1.48343	0.343038	0.801457	-0.719694	0.966804	-0.119488	0.0816099	-0.202766	0.248337	0.21489	0	0	0.139473	-0.148741	-0.304329	0.105316	-0.0350391	0	0	-0.203717	0.132399	0.208604	0.880906	-0.127145	0.44128	1.01587	1.5708	0	0	0.955197	-0.164043	0.258235	0.808783	0.804573	0	0
20.1	0.931758	1.48276	0.357073	0.800631	-0.718463	0.966903	-0.118683	0.0803439	-0.202938	0.249169	0.21354	0	0	0.140531	-0.147751	-0.30421	0.106341	-0.0340142	0	0	-0.203689	0.131584	0.208343	0.883235	-0.130528	0.444291	1.01531	1.5708	0	0	0.960148	-0.163342	0.263647	0.805069	0.804068	0	0
20.11	0.921389	1.48215	0.368355	0.799831	-0.717219	0.967001	-0.118118	0.0790623	-0.202894	0.250163	0.212636	0	0	0.141374	-0.146778	-0.303884	0.107516	-0.0326356	0	0	-0.203797	0.130737	0.208548	0.885101	-0.134838	0.446413	1.01631	1.5708	0	0	0.964938	-0.162508	0.269763	0.802497	0.803397	0	0
20.12	0.916682	1.48153	0.37416	0.799057	-0.715955	0.967109	-0.11818	0.0780715	-0.202707	0.250865	0.211512	0	0	0.141816	-0.146	-0.303147	0.108863	-0.0312007	0	0	-0.20434	0.130189	0.208853	0.887065	-0.139569	0.448361	1.01777	1.5708	0	0	0.969792	-0.161453	0.276644	0.799968	0.802729	0	0
20.13	0.91949	1.4807	0.37264	0.798341	-0.714671	0.96724	-0.119092	0.077804	-0.202353	0.25094	0.209748	0	0	0.14162	-0.145592	-0.301188	0.109833	-0.030295	0	0	-0.205373	0.130127	0.209135	0.889306	-0.144212	0.45054	1.01853	1.5708	0	0	0.974521	-0.16015	0.283074	0.797331	0.802564	0	0
20.14	0.934364	1.47977	0.358948	0.797755	-0.713362	0.967429	-0.121412	0.0783072	-0.201714	0.250302	0.207473	0	0	0.140085	-0.145742	-0.29825	0.110532	-0.0294228	0	0	-0.207442	0.130435	0.209628	0.892032	-0.148689	0.453553	1.01839	1.5708	0	0	0.97911	-0.158791	0.288973	0.794653	0.802525	0	0
20.15	0.943195	1.47898	0.352052	0.797012	-0.712102	0.967593	-0.122911	0.0783948	-0.201986	0.250308	0.205459	0	0	0.139632	-0.145542	-0.296273	0.111962	-0.0280871	0	0	-0.20919	0.130737	0.20927	0.895521	-0.153248	0.457965	1.01735	1.5708	0	0	0.983392	-0.157153	0.294419	0.792191	0.8021	0	0
20.16	0.89186	1.47235	0.409909	0.796871	-0.712154	0.967539	-0.114811	0.0852516	-0.200459	0.25019	0.200113	0	0	0.149365	-0.149649	-0.302026	0.110748	-0.0309027	0	0	-0.204776	0.132429	0.205197	0.898636	-0.155658	0.457691	1.01627	1.5708	0	0	0.990063	-0.156801	0.301464	0.789895	0.80106	0	0
20.17	0.935944	1.47733	0.364758	0.795314	-0.709597	0.967772	-0.123185	0.0777941	-0.204144	0.251129	0.201911	0	0	0.142083	-0.144328	-0.293448	0.116021	-0.0251031	0	0	-0.209802	0.131077	0.205717	0.900952	-0.163084	0.464883	1.01835	1.5708	0	0	0.989398	-0.154066	0.302191	0.789663	0.801105	0	0
20.18	0.944824	1.47738	0.358979	0.794471	-0.70834	0.96793	-0.124882	0.077065	-0.206155	0.251502	0.200693	0	0	0.141644	-0.143239	-0.292129	0.11762	-0.0234556	0	0	-0.211662	0.130761	0.203676	0.903926	-0.168728	0.469251	1.02027	1.5708	0	0	0.992201	-0.152077	0.304692	0.78938	0.801351	0	0
20.19	0.948632	1.4773	0.358416	0.793617	-0.707097	0.968039	-0.125982	0.0763496	-0.207905	0.251951	0.19932	0	0	0.141729	-0.142106	-0.290651	0.119165	-0.0215113	0	0	-0.212874	0.130592	0.201501	0.906882	-0.173605	0.473119	1.0212	1.5708	0	0	0.994173	-0.150164	0.306996	0.790265	0.801705	0	0
20.2	0.950928	1.47729	0.359441	0.792739	-0.705877	0.968131	-0.126833	0.0754749	-0.20993	0.25258	0.197856	0	0	0.141995	-0.140833	-0.289211	0.120725	-0.0196025	0	0	-0.213907	0.130452	0.199105	0.909895	-0.177917	0.476536	1.02127	1.5708	0	0	0.995332	-0.148161	0.308696	0.792396	0.802036	0	0
20.21	0.954324	1.47714	0.359203	0.791901	-0.704672	0.968227	-0.127749	0.0748681	-0.211579	0.253158	0.196478	0	0	0.14226	-0.139829	-0.287959	0.122488	-0.0179011	0	0	-0.214953	0.130391	0.196967	0.912795	-0.182202	0.479806	1.02093	1.5708	0	0	0.996077	-0.145738	0.310008	0.795319	0.802117	0	0
20.22	0.958165	1.47675	0.358411	0.79108	-0.703495	0.96833	-0.128633	0.0745701	-0.212922	0.253753	0.194959	0	0	0.142765	-0.139194	-0.286875	0.124711	-0.0161682	0	0	-0.215885	0.130587	0.195284	0.915669	-0.186725	0.48347	1.01983	1.5708	0	0	0.996482	-0.143176	0.310699	0.798744	0.802139	0	0
20.23	0.960218	1.47612	0.359133	0.790264	-0.702338	0.968434	-0.12929	0.0743745	-0.214373	0.254232	0.193448	0	0	0.143513	-0.138761	-0.285733	0.126927	-0.0145885	0	0	-0.216492	0.131005	0.194031	0.918515	-0.191242	0.487369	1.01772	1.5708	0	0	0.996561	-0.140755	0.311364	0.802619	0.801924	0	0
20.24	0.959105	1.47537	0.36284	0.789451	-0.701156	0.968512	-0.129796	0.0741451	-0.215989	0.254355	0.191929	0	0	0.144605	-0.138293	-0.284231	0.129119	-0.0134387	0	0	-0.216612	0.131345	0.193241	0.920185	-0.196687	0.49001	1.01748	1.5708	0	0	0.996816	-0.137746	0.312822	0.805899	0.801647	0	0
20.25	0.956129	1.47451	0.368032	0.788685	-0.699976	0.968595	-0.130232	0.0739685	-0.217328	0.254185	0.190269	0	0	0.145841	-0.138032	-0.283041	0.131398	-0.0120716	0	0	-0.216575	0.131611	0.193078	0.921313	-0.202716	0.492228	1.01831	1.5708	0	0	0.997412	-0.134333	0.316226	0.808522	0.80125	0	0
20.26	0.950732	1.47332	0.375222	0.787978	-0.698787	0.968677	-0.130501	0.0740307	-0.21827	0.253643	0.18829	0	0	0.147337	-0.138199	-0.282364	0.1338	-0.0104497	0	0	-0.216176	0.1321	0.193197	0.922163	-0.208345	0.493797	1.01916	1.5708	0	0	0.998084	-0.130966	0.320783	0.810479	0.801051	0	0
20.27	0.944101	1.47182	0.383394	0.787297	-0.697638	0.968752	-0.130478	0.0742795	-0.219517	0.253052	0.186326	0	0	0.149228	-0.138699	-0.28148	0.136632	-0.00854061	0	0	-0.21561	0.132945	0.19327	0.923327	-0.213331	0.495441	1.0192	1.5708	0	0	0.998453	-0.128055	0.324308	0.812559	0.801559	0	0
20.28	0.936763	1.47027	0.391766	0.786641	-0.696539	0.968813	-0.130165	0.0745508	-0.220406	0.252665	0.184528	0	0	0.151153	-0.139265	-0.280576	0.139442	-0.00680535	0	0	-0.215112	0.133876	0.193288	0.925145	-0.217519	0.497912	1.0184	1.5708	0	0	0.998306	-0.125852	0.326027	0.815341	0.802677	0	0
20.29	0.929766	1.46912	0.39791	0.786135	-0.695364	0.9689	-0.130082	0.0742768	-0.219602	0.252481	0.182809	0	0	0.151814	-0.139651	-0.281907	0.141276	-0.00524426	0	0	-0.214762	0.134066	0.19441	0.926602	-0.221278	0.500331	1.01806	1.5708	0	0	0.99708	-0.124246	0.326433	0.819493	0.803892	0	0
20.3	0.92502	1.46791	0.401501	0.785628	-0.694233	0.968981	-0.130151	0.0741157	-0.218661	0.252177	0.180998	0	0	0.15236	-0.140204	-0.283078	0.143248	-0.00350977	0	0	-0.214776	0.134293	0.195461	0.928157	-0.224946	0.502451	1.01836	1.5708	0	0	0.995636	-0.122933	0.326103	0.82452	0.805388	0	0
20.31	0.919071	1.46648	0.406327	0.785111	-0.693135	0.969019	-0.129772	0.0740133	-0.21848	0.252251	0.17961	0	0	0.153517	-0.140978	-0.283847	0.145949	-0.00141815	0	0	-0.21454	0.134716	0.196038	0.929885	-0.228271	0.504469	1.01852	1.5708	0	0	0.994022	-0.122076	0.326031	0.829715	0.807414	0	0
20.32	0.912129	1.46551	0.411723	0.784603	-0.692025	0.969063	-0.129275	0.0732921	-0.218207	0.252789	0.178551	0	0	0.15394	-0.1412	-0.285163	0.147537	0.000280654	0	0	-0.214293	0.13466	0.196711	0.931734	-0.230984	0.506384	1.01791	1.5708	0	0	0.99211	-0.121346	0.325992	0.834795	0.809456	0	0
20.33	0.932195	1.46709	0.390498	0.7842	-0.690978	0.969194	-0.132905	0.0715625	-0.218572	0.252944	0.17836	0	0	0.149895	-0.140131	-0.286966	0.147905	0.00203093	0	0	-0.216205	0.129875	0.202893	0.928223	-0.240166	0.500352	1.02309	1.5708	0	0	1.01493	-0.156615	0.671996	0.761353	1.5708	0	0
20.34	0.924255	1.46631	0.396563	0.783663	-0.689917	0.969202	-0.132158	0.070704	-0.217688	0.25385	0.177548	0	0	0.149928	-0.139925	-0.288099	0.148739	0.00357537	0	0	-0.215936	0.129911	0.203051	0.930607	-0.242087	0.503743	1.02221	1.5708	0	0	1.01089	-0.154233	0.65839	0.763825	1.5708	0	0
20.35	0.924711	1.46564	0.394966	0.783169	-0.688966	0.969225	-0.132483	0.0704913	-0.216992	0.254166	0.176373	0	0	0.149587	-0.139941	-0.287943	0.150053	0.0053148	0	0	-0.216593	0.129847	0.203075	0.932943	-0.244366	0.507094	1.02188	1.5708	0	0	1.01011	-0.153871	0.656898	0.765425	1.5708	0	0
20.36	0.932158	1.46524	0.386588	0.782675	-0.688047	0.969304	-0.133803	0.0703671	-0.216421	0.254004	0.175022	0	0	0.148428	-0.139911	-0.287319	0.151311	0.00693609	0	0	-0.218119	0.129757	0.203216	0.93497	-0.246605	0.510142	1.02235	1.5708	0	0	1.01043	-0.1534	0.657401	0.765627	1.5708	0	0
20.37	0.93808	1.46487	0.379489	0.782185	-0.687071	0.969374	-0.135148	0.0700193	-0.215528	0.253552	0.173837	0	0	0.147269	-0.139873	-0.287739	0.152529	0.0087038	0	0	-0.219218	0.129731	0.203465	0.936577	-0.248167	0.513126	1.02269	1.5708	0	0	1.01009	-0.153347	0.657079	0.76648	1.5708	0	0
